# xmcd
#
# Track frame offsets:
# 150
# 29877
# 47884
# 72748
# 83662
#
# Disc length: 1334 seconds
#
#
# Revision: 0
# Processed by: cddbd v1.5.1PL0 Copyright (c) Steve Scherf et al.
# Submitted via: FreeRIP 2.941 
#
DISCID=47053405
DTITLE=Scissormen - jinx breakers
DYEAR=2005
DGENRE=Blues
TTITLE0=Death Letter
TTITLE1=Tupelo
TTITLE2=Jessie Mae
TTITLE3=John the Revelator
TTITLE4=Jumprt On The Line
EXTD=
EXTT0=
EXTT1=
EXTT2=
EXTT3=
EXTT4=
PLAYORDER=
